<svg width="221" height="55" viewBox="0 0 221 55" fill="none" xmlns="http://www.w3.org/2000/svg">
<path d="M10.8904 48.0006C10.9555 48.0894 10.9555 48.1842 10.843 48.2731C9.38537 49.5233 7.51896 50.098 5.71773 50.098C2.25747 50.098 0 48.0006 0 44.5818V38.8166C0 35.4038 2.28117 33.3063 5.65255 33.3063C7.38269 33.3063 9.09504 33.8751 10.4815 34.9712C10.5941 35.0423 10.5941 35.1312 10.5289 35.2201L10.0727 35.8837C10.0016 35.9726 9.91271 35.9963 9.80013 35.9074C8.59141 34.9949 7.11013 34.4972 5.62885 34.4972C2.7611 34.4972 1.25612 36.2985 1.25612 38.8285V44.5936C1.25612 47.1473 2.7848 48.9189 5.67626 48.9189C7.29381 48.9189 8.88766 48.3738 10.1616 47.3014C10.2741 47.2125 10.3689 47.2303 10.4341 47.3488L10.8904 48.0124V48.0006ZM17.6983 37.8627C20.7971 37.8627 22.551 39.7528 22.551 42.2591V45.7253C22.551 48.2553 20.7971 50.098 17.6983 50.098C14.5995 50.098 12.8456 48.2494 12.8456 45.7253V42.2591C12.8456 39.7528 14.6232 37.8627 17.6983 37.8627ZM21.3422 42.2591C21.3422 40.369 20.1335 38.9766 17.6983 38.9766C15.2631 38.9766 14.0781 40.3631 14.0781 42.2591V45.7253C14.0781 47.6154 15.3105 49.0019 17.6983 49.0019C20.0861 49.0019 21.3422 47.6095 21.3422 45.7253V42.2591ZM29.4952 37.8627C27.9665 37.8627 26.5089 38.2063 25.2587 38.7515C25.1462 38.7989 25.0988 38.8877 25.0988 38.9766V49.6596C25.0988 49.7722 25.1876 49.8433 25.3061 49.8433H26.1238C26.2364 49.8433 26.3075 49.7722 26.3075 49.6596V39.5217C27.1963 39.2018 28.3576 38.9766 29.4952 38.9766C31.8889 38.9766 33.228 40.0905 33.228 42.6443V49.6596C33.228 49.7722 33.3169 49.8433 33.4354 49.8433H34.259C34.3716 49.8433 34.4427 49.7722 34.4427 49.6596V42.5969C34.4427 39.3617 32.5289 37.8568 29.5011 37.8568M41.9379 37.8568C40.4092 37.8568 38.9517 38.2004 37.7015 38.7455C37.5889 38.7929 37.5415 38.8818 37.5415 38.9707V49.6537C37.5415 49.7662 37.6304 49.8373 37.7489 49.8373H38.5665C38.6791 49.8373 38.7502 49.7662 38.7502 49.6537V39.5158C39.639 39.1958 40.8003 38.9707 41.9379 38.9707C44.3317 38.9707 45.6707 40.0846 45.6707 42.6383V49.6537C45.6707 49.7662 45.7596 49.8373 45.8781 49.8373H46.7017C46.8143 49.8373 46.8854 49.7662 46.8854 49.6537V42.5909C46.8854 39.3558 44.9716 37.8508 41.9439 37.8508M54.4044 37.8508C56.9759 37.8508 59.0319 39.3558 59.0319 42.271V44.4099C59.0319 44.5225 58.943 44.5936 58.8245 44.5936H50.9619V45.8675C50.9619 47.8465 52.5083 48.99 54.4044 48.99C56.1108 48.99 57.278 48.2613 58.1194 47.5325C58.232 47.4614 58.3268 47.4614 58.392 47.5799L58.8008 48.1013C58.8897 48.1902 58.8897 48.285 58.7771 48.3738C57.7283 49.2863 56.3182 50.0803 54.3807 50.0803C51.9691 50.0803 49.7354 48.5753 49.7354 45.8675V42.271C49.7354 39.3558 51.8092 37.8508 54.4044 37.8508ZM57.8468 42.271C57.8468 40.1083 56.413 38.9648 54.4044 38.9648C52.3957 38.9648 50.9619 40.0787 50.9619 42.271V43.5686H57.8409V42.271H57.8468ZM69.7148 47.8524C69.6437 47.7636 69.5549 47.7398 69.4423 47.8287C68.3698 48.6049 67.2796 48.99 66.0709 48.99C63.8608 48.99 62.6106 47.5976 62.6106 45.7786V42.1584C62.6106 40.3572 63.8431 38.9707 66.0709 38.9707C67.2085 38.9707 68.1862 39.2906 69.146 39.9483C69.2586 40.0135 69.3534 39.972 69.4186 39.9009L69.8037 39.3084C69.8748 39.2195 69.8511 39.1247 69.7326 39.0359C68.6187 38.2597 67.4337 37.8508 66.065 37.8508C63.1498 37.8508 61.396 39.7173 61.396 42.1584V45.7786C61.396 48.2139 63.1498 50.0862 66.065 50.0862C67.6351 50.0862 68.8913 49.6063 70.0763 48.6938C70.1652 48.6227 70.1652 48.5338 70.1 48.4212L69.7148 47.8524ZM77.3464 48.9012C76.9138 48.9249 76.3865 48.9486 76.0903 48.9486C74.4253 48.9486 73.5602 47.8998 73.5602 46.1697V39.2432H77.0205C77.1331 39.2432 77.2042 39.1721 77.2042 39.0596V38.3545C77.2042 38.2419 77.1331 38.1471 77.0205 38.1471H73.5365L73.4654 35.3682C73.4417 35.2556 73.3766 35.1845 73.2581 35.1845H72.5293C72.4167 35.1845 72.3456 35.2556 72.3456 35.3682V46.2112C72.3456 48.7412 73.8032 50.0862 76.0369 50.0862C76.3569 50.0862 76.9257 50.0625 77.3345 50.0151C77.4708 49.9914 77.5182 49.9262 77.5182 49.8077V49.0789C77.5182 48.9426 77.4471 48.8715 77.3345 48.8952M80.386 34.0647C79.906 34.0647 79.5683 34.4084 79.5683 34.8824C79.5683 35.3564 79.912 35.6823 80.386 35.6823C80.86 35.6823 81.1859 35.3386 81.1859 34.8824C81.1859 34.4024 80.8422 34.0647 80.386 34.0647ZM80.7948 38.0997H79.9534C79.8409 38.0997 79.7698 38.1708 79.7698 38.3071V49.6537C79.7698 49.7662 79.8409 49.8373 79.9534 49.8373H80.7948C80.9074 49.8373 80.9785 49.7662 80.9785 49.6537V38.3071C80.9785 38.1708 80.9074 38.0997 80.7948 38.0997ZM88.6989 37.8508C87.1702 37.8508 85.7126 38.1945 84.4624 38.7396C84.3499 38.787 84.3025 38.8759 84.3025 38.9648V49.6477C84.3025 49.7603 84.3973 49.8314 84.5098 49.8314H85.3275C85.4401 49.8314 85.5112 49.7603 85.5112 49.6477V39.5099C86.4 39.1899 87.5613 38.9648 88.6989 38.9648C91.0926 38.9648 92.4376 40.0787 92.4376 42.6324V49.6477C92.4376 49.7603 92.5265 49.8314 92.645 49.8314H93.4686C93.5812 49.8314 93.6523 49.7603 93.6523 49.6477V42.585C93.6523 39.3499 91.7385 37.8449 88.7107 37.8449M105.503 38.6863C105.615 38.7337 105.662 38.8226 105.662 38.9174V49.8966C105.662 52.5629 104.276 54.3819 101.059 54.3819C99.2811 54.3819 97.9124 53.7479 96.7274 52.6755C96.6326 52.6103 96.6326 52.5155 96.7037 52.4029L97.1125 51.8104C97.1777 51.7215 97.2725 51.6978 97.3614 51.7867C98.3628 52.6518 99.5004 53.2917 101.053 53.2917C103.423 53.2917 104.472 52.0356 104.448 49.8077V48.6701C103.488 49.1263 102.285 49.4226 101.189 49.4226C98.3213 49.4226 96.3364 47.9176 96.3364 44.8425V42.4487C96.3364 39.1899 98.4101 37.8449 101.278 37.8449C102.735 37.8449 104.329 38.1886 105.491 38.6863M104.442 39.4625C103.601 39.1662 102.256 38.9588 101.254 38.9588C98.9553 38.9588 97.5629 39.9839 97.5629 42.4428V44.8365C97.5629 47.3192 99.0441 48.3205 101.254 48.3205C102.416 48.3205 103.601 48.0006 104.442 47.5206V39.4566V39.4625ZM125.808 49.6003C125.832 49.7366 125.784 49.8255 125.648 49.8255H124.712C124.599 49.8255 124.528 49.7544 124.481 49.6655L122.816 45.0617H115.528L113.863 49.6655C113.815 49.7544 113.75 49.8255 113.661 49.8255H112.702C112.589 49.8255 112.518 49.7366 112.565 49.6003L118.396 33.6973C118.443 33.6085 118.508 33.5374 118.603 33.5374H119.741C119.829 33.5374 119.901 33.6085 119.948 33.6973L125.802 49.6003H125.808ZM122.436 43.9063L119.225 35.0009H119.154L115.919 43.9063H122.436ZM131.887 43.3375C130.181 42.9761 128.539 42.5376 128.539 40.9674C128.539 39.7173 129.748 38.9648 131.526 38.9648C132.776 38.9648 134.008 39.3262 134.986 39.9009C135.098 39.972 135.211 39.9246 135.258 39.8298L135.626 39.2136C135.691 39.101 135.673 39.0062 135.555 38.9411C134.37 38.2775 133.143 37.8449 131.567 37.8449C129.292 37.8449 127.354 38.9174 127.354 40.9674C127.354 43.4086 129.884 44.09 131.662 44.4336C133.167 44.7536 134.85 45.0913 134.85 46.7089C134.85 48.1902 133.528 48.9841 131.662 48.9841C130.252 48.9841 128.972 48.5042 127.834 47.6628C127.722 47.5739 127.627 47.5917 127.562 47.7102L127.177 48.3501C127.129 48.439 127.129 48.5338 127.248 48.599C128.522 49.5766 130.003 50.0803 131.644 50.0803C134.376 50.0803 136.088 48.759 136.088 46.6615C136.088 44.244 133.854 43.7463 131.893 43.3375M142.985 37.8449C145.947 37.8449 147.903 39.3499 147.903 42.745V45.2039C147.903 48.4153 145.989 50.0803 143.026 50.0803C141.818 50.0803 140.656 49.7129 139.767 49.1678V53.9731C139.767 54.0856 139.696 54.1567 139.584 54.1567H138.76C138.648 54.1567 138.553 54.0916 138.553 53.9731V38.8937C138.553 38.7811 138.6 38.71 138.689 38.6685C139.963 38.1649 141.492 37.8449 142.973 37.8449M146.664 42.745C146.664 40.0313 145.296 38.9411 142.949 38.9411C141.788 38.9411 140.674 39.1425 139.761 39.4862V47.9828C140.65 48.599 141.788 48.9841 142.949 48.9841C145.343 48.9841 146.664 47.8465 146.664 45.2039V42.745ZM151.997 38.0997H151.155C151.043 38.0997 150.972 38.1708 150.972 38.3071V49.6537C150.972 49.7662 151.043 49.8373 151.155 49.8373H151.997C152.109 49.8373 152.181 49.7662 152.181 49.6537V38.3071C152.181 38.1708 152.109 38.0997 151.997 38.0997ZM151.588 34.0647C151.108 34.0647 150.77 34.4084 150.77 34.8824C150.77 35.3564 151.114 35.6823 151.588 35.6823C152.062 35.6823 152.382 35.3386 152.382 34.8824C152.382 34.4024 152.038 34.0647 151.588 34.0647ZM161.838 38.0523C161.062 37.9397 160.268 37.8449 159.516 37.8449C158.195 37.8449 156.784 38.1412 155.664 38.6685C155.552 38.7159 155.505 38.8048 155.505 38.8937V49.6477C155.505 49.7603 155.593 49.8314 155.712 49.8314H156.53C156.642 49.8314 156.713 49.7603 156.713 49.6477V39.4862C157.531 39.1425 158.603 38.9411 159.652 38.9411C160.357 38.9411 161.133 39.0122 161.815 39.1247C161.927 39.1484 162.022 39.0773 162.022 38.9648V38.2597C162.022 38.1471 161.975 38.076 161.838 38.0523ZM167.781 37.8449C170.608 37.8449 172.13 39.4151 172.13 42.1525V49.0789C172.13 49.1678 172.083 49.2626 171.97 49.3041C170.969 49.6892 169.417 50.0803 167.734 50.0803C165.115 50.0803 162.952 48.8478 162.952 46.3889C162.952 43.93 164.795 42.7865 167.734 42.7865C168.895 42.7865 170.057 42.9938 170.922 43.1538V42.1762C170.922 40.1498 170.033 38.9648 167.734 38.9648C166.365 38.9648 165.091 39.3736 164.25 39.9009C164.161 39.972 164.066 39.9483 164.001 39.8535L163.616 39.261C163.545 39.1721 163.545 39.0773 163.616 39.0359C164.617 38.3308 166.075 37.8508 167.787 37.8508M170.933 44.2085C170.092 44.0248 168.883 43.8648 167.746 43.8648C165.376 43.8648 164.191 44.7773 164.191 46.3949C164.191 48.0124 165.672 48.99 167.746 48.99C169.02 48.99 170.14 48.7175 170.933 48.4449V44.2085ZM180.248 48.9012C179.815 48.9249 179.294 48.9486 178.998 48.9486C177.333 48.9486 176.468 47.8998 176.468 46.1697V39.2432H179.928C180.04 39.2432 180.111 39.1721 180.111 39.0596V38.3545C180.111 38.2419 180.04 38.1471 179.928 38.1471H176.444L176.373 35.3682C176.349 35.2556 176.284 35.1845 176.165 35.1845H175.437C175.324 35.1845 175.253 35.2556 175.253 35.3682V46.2112C175.253 48.7412 176.71 50.0862 178.944 50.0862C179.264 50.0862 179.833 50.0625 180.242 50.0151C180.378 49.9914 180.426 49.9262 180.426 49.8077V49.0789C180.426 48.9426 180.354 48.8715 180.242 48.8952M183.542 34.0647C183.062 34.0647 182.724 34.4084 182.724 34.8824C182.724 35.3564 183.068 35.6823 183.542 35.6823C184.016 35.6823 184.342 35.3386 184.342 34.8824C184.342 34.4024 183.998 34.0647 183.542 34.0647ZM183.951 38.0997H183.11C182.997 38.0997 182.926 38.1708 182.926 38.3071V49.6537C182.926 49.7662 182.997 49.8373 183.11 49.8373H183.951C184.064 49.8373 184.135 49.7662 184.135 49.6537V38.3071C184.135 38.1708 184.064 38.0997 183.951 38.0997ZM191.926 37.8508C195.025 37.8508 196.779 39.741 196.779 42.2473V45.7135C196.779 48.2435 195.025 50.0862 191.926 50.0862C188.827 50.0862 187.074 48.2376 187.074 45.7135V42.2473C187.074 39.741 188.851 37.8508 191.926 37.8508ZM195.57 42.2473C195.57 40.3572 194.361 38.9648 191.926 38.9648C189.491 38.9648 188.306 40.3512 188.306 42.2473V45.7135C188.306 47.6036 189.538 48.99 191.926 48.99C194.314 48.99 195.57 47.5976 195.57 45.7135V42.2473ZM204.067 37.8508C202.538 37.8508 201.08 38.1945 199.83 38.7396C199.718 38.787 199.67 38.8759 199.67 38.9648V49.6477C199.67 49.7603 199.759 49.8314 199.878 49.8314H200.695C200.808 49.8314 200.879 49.7603 200.879 49.6477V39.5099C201.768 39.1899 202.929 38.9648 204.067 38.9648C206.46 38.9648 207.805 40.0787 207.805 42.6324V49.6477C207.805 49.7603 207.894 49.8314 208.013 49.8314H208.831C208.943 49.8314 209.014 49.7603 209.014 49.6477V42.585C209.014 39.3499 207.1 37.8449 204.073 37.8449M216.189 43.3375C214.483 42.9761 212.842 42.5376 212.842 40.9674C212.842 39.7173 214.051 38.9648 215.828 38.9648C217.078 38.9648 218.311 39.3262 219.294 39.9009C219.407 39.972 219.519 39.9246 219.567 39.8298L219.928 39.2136C219.999 39.101 219.976 39.0062 219.857 38.9411C218.672 38.2775 217.446 37.8449 215.87 37.8449C213.594 37.8449 211.657 38.9174 211.657 40.9674C211.657 43.4086 214.187 44.09 215.964 44.4336C217.469 44.7536 219.152 45.0913 219.152 46.7089C219.152 48.1902 217.831 48.9841 215.964 48.9841C214.554 48.9841 213.274 48.5042 212.137 47.6628C212.024 47.5739 211.929 47.5917 211.864 47.7102L211.479 48.3501C211.432 48.439 211.432 48.5338 211.55 48.599C212.824 49.5766 214.305 50.0803 215.947 50.0803C218.678 50.0803 220.39 48.759 220.39 46.6615C220.39 44.244 218.157 43.7463 216.201 43.3375M20.9749 0.955182H0V7.4017H6.16804V22.6885H14.8957V7.40763H20.9749V0.955182ZM26.9652 0.955182L18.7707 22.6885H27.1429L31.5512 9.79545L36.0484 22.6885H44.5094L36.0484 0.955182H26.9711H26.9652ZM63.4579 0.955182H42.483V7.4017H48.74V22.6885H57.4676V7.40763H63.4579V0.955182ZM69.4482 0.955182L61.2538 22.6885H69.626L74.0402 9.79545L78.5314 22.6885H86.9865L78.5314 0.955182H69.4541H69.4482ZM115.895 0.955182L112.897 9.65917C112.056 12.207 111.315 14.8851 110.734 17.2374H110.64C110.089 14.8199 109.413 12.2366 108.643 9.69472L105.805 0.955182H100.579L99.1271 22.6885H102.836L103.316 13.9489C103.476 10.9805 103.606 7.53205 103.701 4.69393H103.766C104.347 7.4017 105.123 10.3702 105.959 13.1431L108.862 22.4278H111.925L115.083 13.0128C116.049 10.2695 116.956 7.33653 117.661 4.69393H117.756C117.726 7.62686 117.886 11.016 118.016 13.8186L118.437 22.6885H122.306L121.05 0.955182H115.889H115.895ZM136.023 0.599675C142.374 0.599675 146.119 5.40494 146.119 11.5967C146.119 18.8846 141.699 23.044 135.703 23.044C129.707 23.044 125.707 18.3691 125.707 11.9818C125.707 5.59454 129.89 0.599675 136.023 0.599675ZM135.928 19.8504C139.767 19.8504 141.93 16.3071 141.93 11.7567C141.93 7.66241 139.898 3.79331 135.928 3.79331C131.958 3.79331 129.896 7.43725 129.896 11.9166C129.896 16.396 132.124 19.8504 135.928 19.8504ZM147.12 4.27917H153.312V22.6885H157.276V4.27324H163.533V0.955182H147.115V4.27324L147.12 4.27917ZM174.85 0.599675C181.202 0.599675 184.946 5.40494 184.946 11.5967C184.946 18.8846 180.526 23.044 174.53 23.044C168.534 23.044 164.534 18.3691 164.534 11.9818C164.534 5.59454 168.723 0.599675 174.85 0.599675ZM174.755 19.8504C178.595 19.8504 180.751 16.3071 180.751 11.7567C180.751 7.66241 178.719 3.79331 174.755 3.79331C170.791 3.79331 168.723 7.43725 168.723 11.9166C168.723 16.396 170.951 19.8504 174.755 19.8504ZM199.493 12.4321C201.039 13.0128 201.975 14.5296 202.526 16.6212C203.202 19.3289 203.782 21.8471 204.233 22.6826H200.138C199.812 22.0367 199.297 20.2651 198.687 17.5573C198.076 14.7192 197.045 13.8186 194.782 13.7534H192.785V22.6885H188.851V1.24551C190.332 0.990732 192.56 0.795204 194.847 0.795204C197.976 0.795204 200.103 1.31069 201.554 2.53719C202.745 3.53853 203.427 5.05536 203.427 6.89214C203.427 9.69472 201.525 11.6026 199.493 12.3432V12.438M195.138 10.856C197.816 10.856 199.493 9.43994 199.493 7.27727C199.493 4.88945 197.816 3.79331 195.232 3.79331C193.976 3.79331 193.17 3.88811 192.785 3.98291V10.8501H195.138M215.23 10.0443C212.326 8.91853 211.07 8.14234 211.07 6.46553C211.07 5.20941 212.166 3.85256 214.679 3.85256C216.711 3.85256 218.228 4.46285 218.998 4.88353L219.964 1.6899C218.832 1.10923 217.09 0.59375 214.738 0.59375C210.027 0.59375 207.059 3.30153 207.059 6.85067C207.059 9.97913 209.346 11.8811 212.925 13.1728C215.704 14.1741 216.794 15.1399 216.794 16.7812C216.794 18.5587 215.372 19.7496 212.824 19.7496C210.792 19.7496 208.86 19.1038 207.568 18.3632L206.697 21.6516C207.888 22.3567 210.276 23.0025 212.569 23.0025C218.18 23.0025 220.823 19.9689 220.823 16.4908C220.823 13.3624 218.986 11.4604 215.212 10.0443" fill="white"/>
</svg>
